<svg width="36" height="35" viewBox="0 0 36 35" fill="none" xmlns="http://www.w3.org/2000/svg">
<g clip-path="url(#clip0_68_717)">
<rect x="2" y="1" width="34" height="34" rx="17" fill="#02BACE" fill-opacity="0.12"/>
<g clip-path="url(#clip1_68_717)">
<path d="M30.8734 17.5925C30.6484 17.2971 25.5437 10.2659 19.0469 10.2659C12.55 10.2659 7.35156 17.2971 7.12661 17.5925C6.95777 17.8315 6.95777 18.169 7.12661 18.408C7.35156 18.7034 12.55 25.7346 19.0469 25.7346C25.5437 25.7346 30.6484 18.7034 30.8734 18.408C31.0422 18.169 31.0422 17.8315 30.8734 17.5925Z" fill="url(#paint0_linear_68_717)"/>
<path d="M30.8734 18.4078C30.6484 18.7031 25.5437 25.7344 19.0469 25.7344V10.2656C25.5437 10.2656 30.6484 17.2969 30.8734 17.5922C31.0422 17.8313 31.0422 18.1687 30.8734 18.4078Z" fill="url(#paint1_linear_68_717)"/>
<path d="M19.0469 13.0781C16.3328 13.0781 14.125 15.2859 14.125 18C14.125 20.7141 16.3328 22.9219 19.0469 22.9219C21.7609 22.9219 23.9687 20.7141 23.9687 18C23.9687 15.2859 21.7609 13.0781 19.0469 13.0781Z" fill="#F5F5F5"/>
<path d="M19.0469 15.8906C17.8796 15.8906 16.9375 16.8328 16.9375 18C16.9375 19.1672 17.8796 20.1094 19.0469 20.1094C20.2141 20.1094 21.1562 19.1672 21.1562 18C21.1562 16.8328 20.2141 15.8906 19.0469 15.8906Z" fill="#02BACE"/>
<path d="M23.9687 18C23.9687 20.7141 21.7609 22.9219 19.0469 22.9219V13.0781C21.7609 13.0781 23.9687 15.286 23.9687 18Z" fill="#F5F5F5"/>
<path d="M21.1562 18C21.1562 19.1672 20.2141 20.1094 19.0469 20.1094V15.8906C20.2141 15.8906 21.1562 16.8328 21.1562 18Z" fill="#02BACE"/>
</g>
</g>
<defs>
<linearGradient id="paint0_linear_68_717" x1="19" y1="10.2659" x2="19" y2="25.7346" gradientUnits="userSpaceOnUse">
<stop stop-color="#02BACE"/>
<stop offset="1" stop-color="#29ABE2"/>
</linearGradient>
<linearGradient id="paint1_linear_68_717" x1="25.0234" y1="10.2656" x2="25.0234" y2="25.7344" gradientUnits="userSpaceOnUse">
<stop stop-color="#02BACE"/>
<stop offset="1" stop-color="#29ABE2"/>
</linearGradient>
<clipPath id="clip0_68_717">
<rect width="34.9895" height="34.9895" fill="white" transform="translate(0.802334 -0.00610352)"/>
</clipPath>
<clipPath id="clip1_68_717">
<rect width="24" height="24" fill="white" transform="translate(7 6)"/>
</clipPath>
</defs>
</svg>
