<svg width="36" height="35" viewBox="0 0 36 35" fill="none" xmlns="http://www.w3.org/2000/svg">
<g clip-path="url(#clip0_68_780)">
<rect width="34" height="34" rx="17" fill="#02BACE" fill-opacity="0.12"/>
<path d="M26.504 10.532C26.46 9.87203 25.844 9.38803 25.184 9.47603C21.62 9.96003 18.98 8.15603 17.748 7.05603C17.308 6.66003 16.648 6.66003 16.252 7.05603C15.02 8.11203 12.38 9.96003 8.81598 9.47603C8.15598 9.38803 7.53998 9.87203 7.49598 10.532C7.31998 14.14 7.58398 24.26 17 27.252C26.416 24.26 26.724 14.14 26.504 10.532ZM17 22.368C14.008 22.368 11.632 19.948 11.632 17C11.632 14.052 14.008 11.632 17 11.632C19.992 11.632 22.368 14.008 22.368 17C22.368 19.992 19.992 22.368 17 22.368Z" fill="url(#paint0_linear_68_780)"/>
<path d="M15.944 15.636C15.944 15.284 16.12 15.02 16.34 14.8C16.516 14.668 16.736 14.58 16.956 14.58C17.44 14.58 18.012 14.976 18.012 15.636V16.472H15.9V15.636H15.944ZM19.156 16.868C19.068 16.736 18.98 16.648 18.848 16.56C18.76 16.516 18.672 16.472 18.584 16.472V15.636C18.584 14.888 17.968 14.052 17 14.052C16.12 14.052 15.416 14.756 15.416 15.636V16.472C15.328 16.472 15.24 16.516 15.152 16.56C15.02 16.648 14.888 16.736 14.8 16.868C14.712 17 14.712 17.132 14.712 17.264V19.112C14.712 19.596 15.108 19.904 15.504 19.904H18.496C18.672 19.904 18.804 19.86 18.936 19.772C19.068 19.684 19.156 19.64 19.2 19.508C19.288 19.376 19.332 19.244 19.332 19.068V17.22C19.288 17.132 19.244 17 19.156 16.868ZM17.22 18.232L17.264 18.584C17.264 18.716 17.176 18.804 17.044 18.804H16.912C16.78 18.804 16.692 18.716 16.692 18.584L16.736 18.232C16.604 18.144 16.56 18.012 16.56 17.88C16.56 17.66 16.736 17.484 16.956 17.484C17.176 17.484 17.352 17.66 17.352 17.88C17.396 18.012 17.352 18.144 17.22 18.232Z" fill="url(#paint1_linear_68_780)"/>
</g>
<defs>
<linearGradient id="paint0_linear_68_780" x1="17.0055" y1="6.75903" x2="17.0055" y2="27.252" gradientUnits="userSpaceOnUse">
<stop stop-color="#02BACE"/>
<stop offset="1" stop-color="#29ABE2"/>
</linearGradient>
<linearGradient id="paint1_linear_68_780" x1="17.022" y1="14.052" x2="17.022" y2="19.904" gradientUnits="userSpaceOnUse">
<stop stop-color="#02BACE"/>
<stop offset="1" stop-color="#29ABE2"/>
</linearGradient>
<clipPath id="clip0_68_780">
<rect width="34.9895" height="34.9895" fill="white" transform="translate(0.419495 -0.00610352)"/>
</clipPath>
</defs>
</svg>
