<svg width="36" height="35" viewBox="0 0 36 35" fill="none" xmlns="http://www.w3.org/2000/svg">
<g clip-path="url(#clip0_68_773)">
<rect x="2" width="34" height="34" rx="17" fill="#02BACE" fill-opacity="0.12"/>
<g clip-path="url(#clip1_68_773)">
<path d="M24.6934 7H12.3066C9.93196 7 8 8.93196 8 11.3066V23.6934C8 26.068 9.93196 28 12.3066 28H24.6934C27.068 28 29 26.068 29 23.6934V11.3066C29 8.93196 27.068 7 24.6934 7ZM14.4661 23.1813C14.2764 23.5099 13.931 23.6937 13.5763 23.6938C13.3969 23.6938 13.2206 23.6465 13.0653 23.5566C12.5757 23.2739 12.4073 22.6456 12.69 22.1559L12.8917 21.8066H15.2597L14.4661 23.1813ZM12.5322 20.9863C11.9668 20.9863 11.5068 20.5263 11.5068 19.9609C11.5068 19.3955 11.9668 18.9355 12.5322 18.9355H14.5493L17.316 14.1435L16.5662 12.8448C16.2835 12.3552 16.4518 11.7268 16.9414 11.4441C17.4311 11.1614 18.0595 11.3298 18.3422 11.8194L18.5 12.0928L18.6578 11.8195C18.9406 11.3298 19.569 11.1614 20.0585 11.4441C20.2957 11.5811 20.4654 11.8022 20.5363 12.0667C20.6072 12.3313 20.5708 12.6077 20.4338 12.8449L16.9173 18.9355H19.1354L20.3195 20.9863H12.5322ZM24.4678 20.9863H23.6347L24.3099 22.1559C24.5927 22.6455 24.4243 23.2739 23.9347 23.5566C23.7767 23.6478 23.6013 23.6944 23.4236 23.6944C23.3345 23.6944 23.2449 23.6827 23.1565 23.659C22.892 23.5881 22.6708 23.4184 22.5339 23.1812L18.9736 17.0146L20.1576 14.9638L22.4507 18.9355H24.4678C25.0332 18.9355 25.4932 19.3955 25.4932 19.9609C25.4932 20.5263 25.0332 20.9863 24.4678 20.9863Z" fill="url(#paint0_linear_68_773)"/>
</g>
</g>
<defs>
<linearGradient id="paint0_linear_68_773" x1="18.5" y1="7" x2="18.5" y2="28" gradientUnits="userSpaceOnUse">
<stop stop-color="#02BACE"/>
<stop offset="1" stop-color="#29ABE2"/>
</linearGradient>
<clipPath id="clip0_68_773">
<rect width="34.9895" height="34.9895" fill="white" transform="translate(0.610931 -0.00610352)"/>
</clipPath>
<clipPath id="clip1_68_773">
<rect width="21" height="21" fill="white" transform="translate(8 7)"/>
</clipPath>
</defs>
</svg>
