<svg width="35" height="35" viewBox="0 0 35 35" fill="none" xmlns="http://www.w3.org/2000/svg">
<g clip-path="url(#clip0_68_759)">
<rect x="1" width="34" height="34" rx="17" fill="#02BACE" fill-opacity="0.12"/>
<g clip-path="url(#clip1_68_759)">
<path d="M21.4375 13.5625C21.3962 13.5625 21.3481 13.5556 21.3069 13.5488C21.2613 13.5423 21.2172 13.5284 21.1763 13.5075C21.1324 13.4925 21.0908 13.4717 21.0525 13.4456L20.9494 13.3631L20.8669 13.26C20.8408 13.2217 20.82 13.1801 20.805 13.1363C20.7851 13.0973 20.7712 13.0556 20.7638 13.0125C20.7569 12.9644 20.75 12.9163 20.75 12.875C20.75 12.7856 20.7706 12.6963 20.805 12.6138C20.8394 12.5313 20.8875 12.4556 20.9494 12.3869C20.9838 12.3594 21.0181 12.325 21.0525 12.3044C21.0938 12.2769 21.135 12.2563 21.1763 12.2425C21.2175 12.2219 21.2587 12.2081 21.3069 12.2013C21.4375 12.1738 21.575 12.1875 21.6987 12.2425C21.7881 12.2769 21.8569 12.325 21.9256 12.3869C22.0494 12.5175 22.125 12.6963 22.125 12.875C22.125 12.9163 22.1181 12.9644 22.1112 13.0125C22.1044 13.0538 22.0906 13.095 22.07 13.1363C22.0562 13.1775 22.0356 13.2188 22.0081 13.26L21.9256 13.3631C21.795 13.4869 21.6163 13.5625 21.4375 13.5625ZM27.625 13.5625H24.1875C24.0052 13.5625 23.8303 13.4901 23.7014 13.3611C23.5724 13.2322 23.5 13.0573 23.5 12.875C23.5 12.6927 23.5724 12.5178 23.7014 12.3889C23.8303 12.2599 24.0052 12.1875 24.1875 12.1875H27.625C27.8073 12.1875 27.9822 12.2599 28.1111 12.3889C28.2401 12.5178 28.3125 12.6927 28.3125 12.875C28.3125 13.0573 28.2401 13.2322 28.1111 13.3611C27.9822 13.4901 27.8073 13.5625 27.625 13.5625ZM21.4375 10.8125C21.3481 10.8125 21.2588 10.7919 21.1763 10.7575C21.0869 10.7231 21.0181 10.675 20.9494 10.6131L20.8669 10.51C20.8408 10.4717 20.82 10.4301 20.805 10.3863C20.7851 10.3473 20.7712 10.3056 20.7638 10.2625C20.7569 10.2144 20.75 10.1663 20.75 10.125C20.75 10.0838 20.7569 10.0356 20.7638 9.98751C20.7706 9.94626 20.7844 9.90501 20.805 9.86376C20.8188 9.82251 20.8394 9.78126 20.8669 9.74001L20.9494 9.63688C21.0181 9.57501 21.0869 9.52688 21.1763 9.49251C21.3413 9.41688 21.5337 9.41688 21.6987 9.49251C21.7881 9.52688 21.8569 9.57501 21.9256 9.63688L22.0081 9.74001C22.0356 9.78126 22.0562 9.82251 22.07 9.86376C22.0906 9.90501 22.1044 9.94626 22.1112 9.98751C22.1181 10.0356 22.125 10.0838 22.125 10.125C22.125 10.1663 22.1181 10.2144 22.1112 10.2625C22.1044 10.3038 22.0906 10.345 22.07 10.3863C22.0562 10.4275 22.0356 10.4688 22.0081 10.51L21.9256 10.6131C21.8569 10.675 21.7881 10.7231 21.6987 10.7575C21.6162 10.7919 21.5269 10.8125 21.4375 10.8125ZM27.625 10.8125H24.1875C24.0052 10.8125 23.8303 10.7401 23.7014 10.6111C23.5724 10.4822 23.5 10.3073 23.5 10.125C23.5 9.94267 23.5724 9.76781 23.7014 9.63887C23.8303 9.50994 24.0052 9.43751 24.1875 9.43751H27.625C27.8073 9.43751 27.9822 9.50994 28.1111 9.63887C28.2401 9.76781 28.3125 9.94267 28.3125 10.125C28.3125 10.3073 28.2401 10.4822 28.1111 10.6111C27.9822 10.7401 27.8073 10.8125 27.625 10.8125ZM21.4375 8.06251C21.3962 8.06251 21.3481 8.05563 21.3069 8.04876C21.2613 8.04235 21.2172 8.02841 21.1763 8.00751C21.134 7.99383 21.0944 7.97289 21.0594 7.94563C21.0181 7.91813 20.9838 7.89063 20.9494 7.86313C20.8875 7.79438 20.8394 7.71876 20.805 7.63626C20.7706 7.55376 20.75 7.46438 20.75 7.37501C20.75 7.28563 20.7706 7.19626 20.805 7.11376C20.8394 7.02438 20.8875 6.95563 20.9494 6.88688C20.9838 6.85938 21.0181 6.83188 21.0594 6.80438C21.0938 6.77688 21.135 6.75626 21.1763 6.74251C21.2175 6.72188 21.2587 6.70813 21.3069 6.70126C21.3894 6.68063 21.4856 6.68063 21.575 6.70126C21.6163 6.70813 21.6575 6.72188 21.6987 6.74251C21.74 6.75626 21.7812 6.77688 21.8225 6.80438L21.9256 6.88688C21.9875 6.95563 22.0356 7.02438 22.07 7.11376C22.1044 7.19626 22.125 7.28563 22.125 7.37501C22.125 7.46438 22.1044 7.55376 22.07 7.63626C22.0356 7.71876 21.9875 7.79438 21.9256 7.86313L21.8225 7.94563C21.7812 7.97313 21.74 7.99376 21.6987 8.00751C21.6575 8.02813 21.6163 8.04188 21.575 8.04876C21.5269 8.05563 21.4856 8.06251 21.4375 8.06251ZM27.625 8.06251H24.1875C24.0052 8.06251 23.8303 7.99008 23.7014 7.86115C23.5724 7.73221 23.5 7.55735 23.5 7.37501C23.5 7.19267 23.5724 7.01781 23.7014 6.88887C23.8303 6.75994 24.0052 6.68751 24.1875 6.68751H27.625C27.8073 6.68751 27.9822 6.75994 28.1111 6.88887C28.2401 7.01781 28.3125 7.19267 28.3125 7.37501C28.3125 7.55735 28.2401 7.73221 28.1111 7.86115C27.9822 7.99008 27.8073 8.06251 27.625 8.06251ZM15.25 12.1875C11.0803 12.1875 7.6875 15.5803 7.6875 19.75C7.6875 23.9197 11.0803 27.3125 15.25 27.3125C19.4197 27.3125 22.8125 23.9197 22.8125 19.75C22.8125 15.5803 19.4197 12.1875 15.25 12.1875ZM15.9375 19.75C15.9367 19.9325 15.8641 20.1074 15.7354 20.2368L12.9861 22.9861C12.9224 23.0501 12.8466 23.101 12.7632 23.1357C12.6798 23.1704 12.5903 23.1882 12.5 23.1882C12.4097 23.1882 12.3202 23.1704 12.2368 23.1357C12.1534 23.101 12.0776 23.0501 12.0139 22.9861C11.95 22.9223 11.8993 22.8465 11.8648 22.7631C11.8302 22.6797 11.8124 22.5903 11.8124 22.5C11.8124 22.4097 11.8302 22.3203 11.8648 22.2369C11.8993 22.1535 11.95 22.0777 12.0139 22.0139L14.5625 19.4654V15.625C14.5625 15.4427 14.6349 15.2678 14.7639 15.1389C14.8928 15.0099 15.0677 14.9375 15.25 14.9375C15.4323 14.9375 15.6072 15.0099 15.7361 15.1389C15.8651 15.2678 15.9375 15.4427 15.9375 15.625V19.75Z" fill="url(#paint0_linear_68_759)"/>
</g>
</g>
<defs>
<linearGradient id="paint0_linear_68_759" x1="18" y1="6.68579" x2="18" y2="27.3125" gradientUnits="userSpaceOnUse">
<stop stop-color="#02BACE"/>
<stop offset="1" stop-color="#29ABE2"/>
</linearGradient>
<clipPath id="clip0_68_759">
<rect width="34.9895" height="34.9895" fill="white" transform="translate(-0.0062561 -0.00610352)"/>
</clipPath>
<clipPath id="clip1_68_759">
<rect width="22" height="22" fill="white" transform="translate(7 6)"/>
</clipPath>
</defs>
</svg>
